<?xml version="1.0" standalone="no"?>
<!DOCTYPE svg PUBLIC "-//W3C//DTD SVG 20010904//EN"
 "http://www.w3.org/TR/2001/REC-SVG-20010904/DTD/svg10.dtd">
<svg version="1.0" xmlns="http://www.w3.org/2000/svg"
 width="992.000000pt" height="992.000000pt" viewBox="0 0 992.000000 992.000000"
 preserveAspectRatio="xMidYMid meet">
<metadata>
Created by potrace 1.14, written by Peter Selinger 2001-2017
</metadata>
<g transform="translate(0.000000,992.000000) scale(0.100000,-0.100000)"
fill="#000000" stroke="none">
<path d="M1970 9418 c-14 -13 -55 -45 -90 -73 -36 -27 -67 -52 -70 -55 -3 -3
-32 -27 -65 -55 -157 -131 -412 -385 -552 -552 -10 -12 -27 -32 -38 -45 -11
-12 -38 -45 -59 -73 -22 -27 -43 -51 -48 -53 -4 -2 -8 -8 -8 -13 0 -5 -8 -17
-17 -28 -45 -48 -241 -337 -314 -461 -24 -41 -46 -77 -49 -80 -15 -14 -251
-489 -251 -505 0 -2 -12 -31 -26 -62 -14 -32 -45 -112 -70 -178 -24 -66 -46
-127 -50 -135 -8 -18 -7 -17 -17 -60 -5 -19 -13 -41 -18 -47 -6 -7 -8 -13 -5
-13 3 0 -1 -16 -9 -35 -8 -19 -14 -37 -14 -40 0 -3 -1 -7 -1 -10 -1 -3 -3 -9
-4 -15 -1 -5 -3 -11 -5 -12 -1 -2 -3 -10 -5 -18 -2 -8 -8 -33 -13 -55 -16 -59
-60 -246 -66 -277 -4 -16 -8 -40 -11 -55 -3 -16 -12 -62 -20 -103 -8 -41 -17
-97 -20 -125 -4 -27 -9 -61 -11 -75 -7 -39 -21 -171 -32 -315 -9 -115 -8 -605
1 -710 4 -44 10 -102 12 -130 2 -27 7 -70 11 -95 4 -25 8 -58 9 -75 1 -16 5
-46 8 -65 4 -19 9 -53 12 -75 3 -22 7 -47 10 -55 2 -8 6 -32 9 -52 2 -21 7
-41 9 -45 3 -5 8 -29 12 -53 3 -25 8 -53 11 -62 3 -9 6 -25 8 -35 2 -10 16
-63 30 -118 15 -55 29 -111 32 -125 16 -76 178 -535 203 -575 3 -5 6 -12 7
-15 8 -39 199 -431 248 -509 14 -22 26 -45 26 -50 0 -5 4 -11 9 -13 5 -1 11
-10 13 -18 2 -8 7 -19 11 -25 5 -5 38 -57 75 -115 98 -154 293 -428 321 -450
3 -3 24 -27 45 -55 22 -27 47 -57 55 -66 9 -8 36 -40 61 -69 78 -93 441 -450
457 -450 3 0 13 -8 22 -18 18 -20 181 -151 276 -222 33 -25 62 -47 65 -50 3
-3 17 -11 33 -19 15 -8 27 -18 27 -23 0 -4 7 -8 15 -8 8 0 15 -4 15 -8 0 -4
23 -21 50 -37 28 -16 50 -33 50 -38 0 -4 4 -5 10 -2 5 3 10 2 10 -2 0 -5 17
-17 38 -28 20 -11 39 -23 42 -26 3 -3 23 -16 45 -28 22 -12 63 -35 90 -52 28
-16 57 -32 65 -36 8 -3 21 -11 29 -17 7 -5 19 -11 27 -12 7 -1 26 -11 41 -21
26 -19 141 -75 263 -130 30 -14 66 -31 80 -38 14 -7 28 -13 33 -14 4 0 22 -7
40 -15 39 -17 170 -67 252 -96 33 -11 67 -23 75 -27 8 -3 20 -7 26 -8 17 -4
155 -46 184 -56 56 -20 313 -78 321 -73 5 3 9 1 9 -5 0 -5 8 -9 18 -9 9 0 31
-2 47 -6 17 -4 44 -9 60 -12 17 -2 41 -7 55 -10 14 -3 41 -8 60 -10 19 -3 46
-7 60 -10 14 -3 45 -7 70 -9 25 -2 61 -6 80 -10 19 -3 58 -8 85 -10 28 -2 82
-7 120 -11 83 -9 635 -9 750 0 128 10 199 17 290 31 11 1 43 6 70 10 75 10 95
13 181 31 43 8 90 17 104 19 14 2 25 4 25 5 0 2 14 5 55 13 14 3 45 10 70 17
25 7 53 14 62 16 75 17 240 64 259 74 10 6 19 8 19 4 0 -3 7 -1 15 6 8 7 15
10 15 6 0 -3 17 1 38 10 30 13 59 23 112 39 3 1 14 5 25 10 11 4 72 28 135 53
144 56 427 188 520 242 8 5 71 42 140 81 69 40 156 93 194 118 38 25 79 53 92
61 36 23 138 94 144 100 3 3 23 18 45 35 48 36 39 29 150 117 50 40 95 77 101
83 6 5 42 37 80 70 187 165 479 477 604 645 14 19 32 41 40 50 8 9 31 39 50
68 19 29 38 52 43 52 4 0 7 6 7 13 0 7 11 24 25 39 14 15 25 29 25 32 0 3 11
22 25 43 85 128 135 207 148 232 8 14 36 64 63 111 59 102 234 457 234 474 0
2 10 25 22 52 12 27 23 52 24 57 1 4 2 8 4 10 1 1 3 9 5 17 1 9 12 37 24 62
11 26 21 53 21 61 0 7 3 17 7 21 5 4 8 11 9 14 0 4 16 57 36 117 38 115 86
276 93 314 2 13 7 31 10 41 3 10 8 29 11 42 7 32 23 108 30 138 3 14 7 36 9
50 2 14 4 26 6 28 3 4 5 16 13 67 12 78 15 98 20 123 l5 24 -112 -6 c-115 -6
-180 -12 -184 -16 -2 -1 -11 -3 -20 -4 -19 -2 -135 -19 -143 -21 -27 -6 -167
-38 -175 -39 -12 -3 -111 -31 -185 -53 -30 -9 -57 -16 -60 -16 -5 1 -333 -112
-360 -124 -8 -3 -18 -7 -22 -8 -5 -2 -10 -4 -13 -5 -3 -1 -8 -3 -12 -4 -5 -1
-19 -8 -33 -16 -14 -7 -27 -13 -30 -13 -3 0 -14 -3 -25 -7 -104 -41 -134 -53
-162 -65 -17 -8 -34 -15 -37 -15 -3 0 -34 -13 -68 -29 -35 -16 -108 -48 -163
-71 -55 -23 -106 -47 -112 -52 -7 -6 -13 -7 -13 -3 0 4 -7 2 -15 -5 -8 -7 -15
-9 -15 -4 0 5 -4 4 -8 -2 -4 -5 -38 -23 -77 -40 -61 -25 -299 -142 -374 -183
-14 -8 -27 -18 -29 -23 -2 -4 -9 -8 -16 -8 -6 0 -31 -18 -54 -39 -23 -22 -42
-37 -42 -35 0 7 -45 -42 -73 -78 -71 -94 -105 -137 -132 -168 -43 -51 -316
-320 -325 -320 -4 0 -23 -15 -42 -32 -20 -18 -45 -40 -58 -48 -12 -8 -31 -23
-42 -33 -12 -9 -24 -17 -27 -17 -3 0 -20 -12 -36 -27 -16 -16 -32 -28 -35 -27
-3 0 -34 -18 -70 -41 -36 -23 -90 -56 -120 -74 -97 -55 -343 -171 -364 -171
-7 0 -15 -3 -19 -6 -6 -6 -160 -63 -187 -69 -8 -1 -35 -9 -60 -16 -25 -7 -49
-13 -55 -15 -5 -1 -30 -7 -55 -14 -25 -7 -54 -14 -65 -16 -11 -2 -33 -7 -50
-10 -16 -4 -41 -8 -55 -9 -14 -1 -50 -7 -80 -13 -30 -6 -82 -14 -115 -18 -86
-10 -520 -13 -564 -4 -20 5 -65 11 -101 14 -36 3 -76 8 -90 11 -14 3 -37 6
-52 7 -16 1 -28 5 -28 8 0 3 -15 7 -32 8 -18 2 -60 10 -93 18 -33 9 -70 18
-83 20 -29 6 -287 91 -327 109 -16 7 -59 26 -95 41 -88 39 -267 131 -280 144
-6 6 -46 29 -82 47 -15 8 -30 18 -33 23 -3 5 -21 17 -40 26 -19 9 -35 20 -35
25 0 5 -6 9 -14 9 -8 0 -16 3 -18 8 -1 4 -30 27 -63 52 -187 141 -398 348
-525 516 -25 32 -47 61 -50 64 -11 10 -109 158 -150 225 -39 64 -190 356 -190
369 0 2 -5 17 -12 33 -6 15 -12 31 -13 36 -2 4 -4 9 -5 12 -1 3 -3 8 -5 13 -3
10 -15 43 -25 67 -14 32 -81 264 -85 290 0 6 -4 26 -9 45 -4 19 -9 44 -11 55
-2 11 -4 20 -5 20 -1 0 -3 9 -4 20 -2 11 -6 38 -9 60 -4 22 -9 60 -12 85 -3
25 -8 61 -10 80 -5 31 -18 269 -17 295 1 6 3 60 5 120 6 129 13 191 38 340 17
103 21 125 34 183 3 12 7 30 9 40 2 10 12 43 21 73 9 30 19 65 21 79 8 38 102
286 135 354 16 33 29 64 29 69 0 6 7 18 16 28 8 9 16 26 17 38 1 11 5 21 9 21
4 0 8 5 8 11 0 13 65 184 80 211 6 10 10 26 10 36 0 10 3 22 7 26 4 3 8 12 9
19 1 7 10 34 19 61 19 57 42 141 50 187 3 18 8 35 10 39 2 4 7 20 10 36 6 34
13 69 20 104 40 191 49 513 19 685 -4 22 -8 51 -9 65 -2 14 -3 25 -5 25 -1 0
-4 14 -6 30 -16 102 -136 392 -186 449 -10 11 -18 24 -18 29 0 4 -6 14 -12 21
-7 8 -20 24 -28 36 -30 45 -85 115 -92 118 -5 2 -8 10 -8 18 0 8 -3 14 -7 14
-5 0 -19 17 -33 38 -14 20 -27 39 -30 42 -3 3 -18 23 -35 45 -16 22 -33 45
-38 50 -4 6 -29 39 -55 75 -26 36 -55 74 -64 84 -10 11 -18 24 -18 28 0 7 -48
58 -54 58 -1 0 -12 -10 -26 -22z"/>
<path d="M4971 7433 c1 -5 0 -11 -1 -15 -1 -5 -4 -12 -5 -18 -1 -5 -4 -12 -5
-15 -1 -3 -3 -8 -4 -12 -1 -5 -30 -96 -65 -203 -56 -170 -67 -204 -76 -230 -1
-3 -4 -12 -8 -20 -8 -23 -71 -214 -73 -225 -1 -5 -14 -46 -29 -90 -15 -44 -28
-86 -30 -95 -2 -8 -20 -62 -40 -120 -19 -58 -38 -113 -40 -123 -2 -9 -15 -51
-29 -91 -15 -41 -26 -81 -26 -90 0 -19 86 -17 -752 -18 -379 -1 -688 -5 -688
-9 0 -6 175 -138 218 -164 9 -5 19 -12 22 -16 3 -3 91 -67 195 -142 105 -76
198 -144 208 -152 9 -8 21 -15 26 -15 5 0 11 -4 13 -9 2 -4 44 -37 93 -72 50
-35 97 -69 105 -76 8 -7 69 -51 135 -99 66 -47 124 -90 129 -94 4 -5 -14 -75
-40 -157 -27 -81 -49 -150 -49 -153 0 -3 -9 -30 -20 -60 -10 -30 -20 -59 -21
-65 -1 -5 -12 -39 -24 -75 -12 -36 -24 -73 -26 -84 -2 -10 -8 -23 -13 -30 -5
-6 -9 -14 -9 -19 0 -4 -10 -40 -23 -80 -12 -39 -23 -76 -25 -82 -5 -23 -106
-332 -114 -350 -10 -24 -70 -211 -70 -220 0 -8 35 11 52 28 7 7 42 33 76 58
107 74 118 82 209 148 48 36 90 68 93 71 3 4 14 12 25 18 11 6 61 41 112 79
50 37 102 75 114 83 12 8 44 32 70 53 27 20 51 37 54 37 4 0 15 8 67 53 12 9
25 17 29 17 4 0 14 6 21 13 7 7 42 33 78 59 36 26 70 51 75 55 88 69 100 72
141 35 11 -9 27 -21 36 -27 42 -26 223 -160 226 -167 2 -4 8 -8 13 -8 8 0 35
-20 64 -47 8 -7 16 -13 20 -13 3 0 34 -21 69 -47 35 -27 75 -56 88 -65 12 -9
43 -32 68 -50 25 -18 60 -43 78 -55 18 -13 38 -28 45 -33 10 -9 62 -47 146
-108 49 -35 127 -92 170 -124 53 -40 101 -70 101 -63 0 6 -97 310 -107 335 -3
8 -8 21 -10 28 -1 6 -5 18 -6 25 -4 14 -15 42 -27 72 -4 11 -18 54 -30 95 -27
91 -59 190 -67 210 -4 8 -8 20 -8 25 -1 6 -5 17 -8 25 -3 8 -31 94 -62 190
-32 96 -70 215 -86 263 -16 49 -29 92 -29 96 0 7 168 133 253 191 53 36 143
104 149 114 4 6 8 8 8 4 0 -5 209 144 265 190 6 4 32 23 60 42 27 19 79 57
115 83 36 27 76 56 89 65 13 9 29 23 36 30 8 6 17 12 20 12 4 0 26 16 49 35
24 19 48 35 55 35 6 0 11 5 11 10 0 6 11 16 25 22 14 6 25 14 25 18 0 4 -312
7 -692 8 -834 1 -758 -1 -758 15 0 7 -16 62 -36 123 -20 60 -37 114 -39 119
-1 6 -5 17 -8 25 -3 8 -13 40 -22 70 -10 30 -20 62 -23 70 -3 8 -6 17 -7 20
-2 11 -27 86 -32 100 -3 8 -7 20 -8 25 -2 6 -17 53 -35 105 -17 52 -34 106
-36 120 -3 13 -9 29 -13 35 -6 8 -29 78 -37 115 0 3 -4 12 -7 20 -8 19 -57
170 -62 190 -2 8 -10 34 -19 58 -8 23 -15 43 -15 45 0 1 -4 13 -9 27 -5 14
-13 40 -17 58 -3 17 -11 32 -16 32 -5 0 -8 -3 -8 -7z"/>
</g>
</svg>
